<svg xmlns="http://www.w3.org/2000/svg" width="40" height="40" fill="white" viewBox="0 0 24 24">
<path d="M20.52 3.48A11.86 11.86 0 0 0 12.01 0C5.38 0 .03 5.35.03 11.97c0 2.11.55 4.17 1.6 5.99L0 24l6.18-1.62a11.96 11.96 0 0 0 5.83 1.49h.01c6.63 0 11.99-5.35 11.99-11.97 0-3.2-1.25-6.21-3.49-8.42zm-8.5 18.1c-1.81 0-3.58-.49-5.11-1.42l-.36-.21-3.67.96.98-3.57-.24-.37a9.86 9.86 0 0 1-1.51-5.24c0-5.47 4.45-9.92 9.92-9.92 2.65 0 5.14 1.03 7.02 2.91a9.84 9.84 0 0 1 2.9 7.01c0 5.47-4.45 9.92-9.93 9.92zm5.45-7.39c-.3-.15-1.78-.88-2.05-.98-.27-.1-.47-.15-.66.15-.2.3-.76.98-.93 1.18-.17.2-.34.22-.64.07-.3-.15-1.27-.47-2.42-1.5-.9-.8-1.5-1.78-1.67-2.08-.17-.3-.02-.46.13-.6.13-.13.3-.34.45-.51.15-.17.2-.3.3-.5.1-.2.05-.37-.02-.52-.07-.15-.66-1.59-.9-2.17-.24-.58-.48-.5-.66-.5-.17 0-.37-.02-.57-.02-.2 0-.52.07-.8.37-.27.3-1.04 1.01-1.04 2.46 0 1.45 1.06 2.86 1.21 3.06.15.2 2.08 3.17 5.05 4.45.71.31 1.26.5 1.69.64.71.23 1.36.2 1.87.12.57-.08 1.78-.73 2.03-1.43.25-.7.25-1.31.17-1.43-.08-.12-.27-.2-.57-.35z"/>
</svg>
